# xmcd CD database file
# Copyright (C) 1993-1996 Ti Kan
#
# Track frame offsets:
#  150
#  13625
#  23925
#  34125
#  43737
#  56325
#  68800
#  80475
#  91450
#  100512
#  113187
#  125037
#  134187
#  144950
#  153612
#  163012
#  174862
#  184925
#  194825
#  205412
#
# Disc length: 2873 seconds
#
# Revision: 2
# Processed by: cddbd v1.5.1PL0 Copyright (c) Steve Scherf et al.
# Submitted via: Advanced CD Ripper Pro 2.0
#
DISCID=210b3714
DTITLE=Skeeter Davis - RCA Country Hall Of Fame
DYEAR=2003
DGENRE=
TTITLE0=I Forgot More Than You'll Ever Know
TTITLE1=Set Him Free
TTITLE2=Homebreaker
TTITLE3=Am I That Easy To Forget
TTITLE4=Your Cheatin' Heart
TTITLE5=(I Can't Help You) I'm Falling Too
TTITLE6=My Last Date (With You)
TTITLE7=He'll Have To Stay
TTITLE8=Optimistic
TTITLE9=Where I Ought To Be
TTITLE10=The End Of The World
TTITLE11=I'm Saving My Love
TTITLE12=Gonna Get Along Without You Now
TTITLE13=A Dear John Letter
TTITLE14=Goin' Down The Road
TTITLE15=What Does It Take
TTITLE16=Walking The Floor Over You
TTITLE17=Silver Threads and Golden Needles
TTITLE18=My Heart Skips A Beat
TTITLE19=Together Again
EXTD=
EXTT0=
EXTT1=
EXTT2=
EXTT3=
EXTT4=
EXTT5=
EXTT6=
EXTT7=
EXTT8=
EXTT9=
EXTT10=
EXTT11=
EXTT12=
EXTT13=
EXTT14=
EXTT15=
EXTT16=
EXTT17=
EXTT18=
EXTT19=
PLAYORDER=
